HIERARCHY
ROOT hip
{
	OFFSET 0.000000 0.000000 0.000000 
	CHANNELS 6 Xposition Yposition Zposition Xrotation Zrotation Yrotation
	JOINT abdomen
	{
		OFFSET 0.000000 3.402643 0.000000 
		CHANNELS 3 Xrotation Zrotation Yrotation
		JOINT chest
		{
			OFFSET 0.000000 8.438565 -0.680529 
			CHANNELS 3 Xrotation Zrotation Yrotation
			JOINT neck
			{
				OFFSET 0.000000 10.207942 -0.272212 
				CHANNELS 3 Xrotation Zrotation Yrotation
				JOINT head
				{
					OFFSET 0.000000 3.130431 0.000000 
					CHANNELS 3 Xrotation Zrotation Yrotation
					End Site
					{
						OFFSET 0.000000 3.130435 0.000000 
					}
				}
			}
			JOINT lCollar
			{
				OFFSET 3.470700 6.669187 -0.816635 
				CHANNELS 3 Yrotation Zrotation Xrotation
				JOINT lShldr
				{
					OFFSET 3.198488 0.000000 0.000000 
					CHANNELS 3 Zrotation Yrotation Xrotation
					JOINT lForeArm
					{
						OFFSET 10.139888 0.000000 0.000000 
						CHANNELS 3 Yrotation Zrotation Xrotation
						JOINT lHand
						{
							OFFSET 8.370511 0.000000 0.000000 
							CHANNELS 3 Zrotation Yrotation Xrotation
							End Site
							{
								OFFSET 4.083176 0.000000 0.000000 
							}
						}
					}
				}
			}
			JOINT rCollar
			{
				OFFSET -3.470700 6.669187 -0.816635 
				CHANNELS 3 Yrotation Zrotation Xrotation
				JOINT rShldr
				{
					OFFSET -3.198488 0.000000 0.000000 
					CHANNELS 3 Zrotation Yrotation Xrotation
					JOINT rForeArm
					{
						OFFSET -10.139888 0.000000 0.000000 
						CHANNELS 3 Yrotation Zrotation Xrotation
						JOINT rHand
						{
							OFFSET -8.370511 0.000000 0.000000 
							CHANNELS 3 Zrotation Yrotation Xrotation
							End Site
							{
								OFFSET -4.083176 0.000000 0.000000 
							}
						}
					}
				}
			}
		}
	}
	JOINT lThigh
	{
		OFFSET 5.308129 -1.633274 1.361059 
		CHANNELS 3 Xrotation Zrotation Yrotation
		JOINT lShin
		{
			OFFSET -2.041588 -20.007561 0.000000 
			CHANNELS 3 Xrotation Zrotation Yrotation
			JOINT lFoot
			{
				OFFSET 0.000000 -19.190928 -1.224953 
				CHANNELS 3 Xrotation Yrotation Zrotation
				End Site
				{
					OFFSET 0.000000 -2.449906 4.627600 
				}
			}
		}
	}
	JOINT rThigh
	{
		OFFSET -5.308129 -1.633274 1.361059 
		CHANNELS 3 Xrotation Zrotation Yrotation
		JOINT rShin
		{
			OFFSET 2.041588 -20.007561 0.000000 
			CHANNELS 3 Xrotation Zrotation Yrotation
			JOINT rFoot
			{
				OFFSET 0.000000 -19.190928 -1.224953 
				CHANNELS 3 Xrotation Yrotation Zrotation
				End Site
				{
					OFFSET 0.000000 -2.449906 4.627600 
				}
			}
		}
	}
}
MOTION
Frames: 15
Frame Time: 0.016667
-4.996386 20.414623 35.335857 -8.302410 1.528074 4.689214 22.050825 -3.141559 -2.494518 -23.419491 1.425204 -1.631326 9.407007 4.681997 2.783306 36.259762 -7.454461 4.806340 -6.224633 16.730635 -0.021405 -96.583138 9.377071 -30.020426 -10.418153 2.299330 25.671209 -19.182245 5.431383 -1.896050 8.699663 -8.888196 -0.009537 102.396477 -28.538326 -43.862820 23.076782 -4.629249 63.766388 24.254267 4.061433 1.828005 -15.103136 12.836389 11.730992 87.049187 2.315064 -6.341294 -27.562386 7.564635 -8.306032 -5.067694 -10.128465 -21.768568 29.490063 1.181514 4.609259 -4.098035 -7.179798 11.494917 
-5.156268 20.048824 35.666561 -8.559305 1.275910 4.171061 22.045012 -2.995599 -2.317923 -23.332815 1.581479 -1.514173 9.428087 4.583132 3.106083 36.091969 -7.646167 5.064442 -6.159204 16.661203 -0.012102 -96.841301 9.314018 -30.731638 -10.418945 2.353033 26.481392 -19.247520 5.327701 -1.866357 8.699664 -8.878429 -0.009538 102.161011 -28.142010 -43.838654 23.074718 -4.654203 64.491753 24.131609 4.229887 1.882518 -15.682558 13.211630 11.325952 89.010513 2.421957 -6.312145 -26.510990 8.352350 -8.028721 -5.019201 -9.780300 -21.730364 31.229620 1.093726 4.713855 -7.174410 -7.299705 11.125549 
-5.309597 19.728092 35.976841 -8.801686 1.023297 3.662746 22.130066 -2.878814 -2.161364 -23.313486 1.698700 -1.416551 9.457378 4.679286 3.400467 36.034279 -7.983296 5.334933 -6.129920 16.592840 -0.012094 -97.024864 9.367015 -30.879421 -10.496028 2.356566 26.554424 -19.306335 5.325788 -1.871797 8.670384 -8.780770 -0.009541 101.915039 -27.808983 -43.450542 23.178404 -4.654774 64.629585 23.893833 4.148262 1.825039 -16.366274 13.504794 10.838531 90.901558 2.557896 -6.304676 -25.166796 9.191889 -7.866506 -4.930686 -9.405339 -21.622931 32.764145 1.035353 4.775258 -9.871039 -7.425829 10.761141 
-5.434741 19.451752 36.278210 -9.084973 0.848369 3.096086 22.185919 -2.801089 -1.965317 -23.254663 1.884303 -1.270129 9.593639 4.638976 3.664847 35.956940 -8.262326 5.555880 -6.110412 16.465883 -0.012080 -97.285721 9.452886 -30.448648 -10.647836 2.335616 26.212646 -19.287943 5.363296 -1.883737 8.701172 -8.837890 0.000000 101.785202 -27.409571 -43.461082 23.271622 -4.687173 65.161087 23.747343 4.435342 1.948857 -17.006609 13.617259 10.441831 92.655167 2.723084 -6.285819 -23.745979 10.121700 -7.665326 -4.803538 -9.151264 -21.421774 34.130493 0.996078 4.871439 -12.302095 -7.515140 10.443700 
-5.549601 19.222296 36.574142 -9.335702 0.663405 2.549110 22.213331 -2.703761 -1.789265 -23.094883 1.933216 -1.133156 9.706406 4.676476 3.938966 35.829723 -8.472433 5.815584 -6.081118 16.446346 -0.012078 -97.520630 9.555458 -29.796854 -10.807006 2.288627 25.693823 -19.539474 5.253663 -1.870782 8.701172 -8.837890 0.000000 101.618752 -27.029982 -42.806255 23.378277 -4.678288 65.093697 23.328722 4.543042 1.945949 -17.703897 13.690168 9.988060 94.177849 2.792294 -6.266473 -21.873135 11.043644 -7.634455 -4.579632 -8.861777 -21.221003 35.186302 0.928017 4.904212 -14.284145 -7.565250 10.152878 
-5.659209 19.029819 36.857586 -9.612691 0.468470 1.982515 22.277733 -2.606464 -1.554680 -22.953192 2.011444 -0.947710 9.765170 4.704458 4.154684 35.821983 -8.664001 5.995188 -6.042066 16.387747 -0.012072 -97.766869 9.585733 -29.098946 -10.984592 2.260061 25.165350 -19.862309 5.224685 -1.893656 8.582479 -8.858880 -0.009541 101.434082 -26.603149 -42.154831 23.466265 -4.673315 64.776489 23.147743 4.671195 1.994553 -18.443426 13.687557 9.487759 95.512848 2.899174 -6.265346 -19.766890 11.957426 -7.738605 -4.306114 -8.519628 -20.831375 36.024971 0.878912 4.979548 -16.046356 -7.629847 9.910704 
-5.754137 18.878864 37.138725 -9.846226 0.292878 1.425813 22.275862 -2.509071 -1.349357 -22.791725 2.031056 -0.791211 9.962543 4.722434 4.400403 35.595917 -8.806001 6.224556 -6.022538 16.368212 -0.012070 -98.033470 9.741348 -28.067057 -11.219561 2.176837 24.271666 -20.125704 5.179235 -1.904269 8.582479 -8.858880 -0.009541 101.329582 -26.286015 -41.383984 23.552074 -4.644901 64.186157 22.803154 4.908405 2.061010 -19.244516 13.629498 9.020289 96.653397 2.986609 -6.257058 -17.426579 12.845252 -7.948974 -3.954091 -8.262773 -20.552145 36.610466 0.849641 5.018843 -17.472227 -7.593900 9.722469 
-5.838226 18.754856 37.412399 -10.084950 0.185524 0.908230 22.305775 -2.479967 -1.153800 -22.659170 2.089724 -0.615537 10.134902 4.730968 4.586121 35.499802 -9.007163 6.386429 -5.973728 16.270548 -0.012060 -98.181427 9.889213 -26.650270 -11.470703 2.086618 23.087311 -20.347054 5.367738 -1.986400 8.523887 -8.849104 -0.009543 101.157837 -26.019724 -40.300426 23.629892 -4.600727 63.199890 22.517805 4.882442 2.021011 -20.062325 13.432081 8.489707 97.511627 3.074074 -6.220022 -14.865630 13.589013 -8.336858 -3.622902 -8.064879 -20.195471 37.186790 0.824070 5.039198 -18.576468 -7.549835 9.583714 
-5.910360 18.664766 37.683823 -10.321885 0.058593 0.371104 22.372181 -2.382507 -0.918799 -22.681183 2.021428 -0.429765 10.412305 4.720051 4.762908 35.429520 -9.130339 6.558032 -6.061637 16.172907 -0.012047 -98.346992 10.301190 -25.186815 -11.827998 1.987512 21.907379 -20.560364 5.265387 -1.981447 8.543426 -8.810044 -0.009543 101.036858 -25.875099 -39.321537 23.633286 -4.563068 62.163124 22.392067 4.932053 2.028734 -20.887915 13.251473 7.932971 98.146454 3.093575 -6.213029 -12.250100 14.220307 -8.816147 -3.182978 -7.871960 -19.838106 37.548000 0.820304 5.055765 -19.601522 -7.411909 9.525362 
-5.975020 18.599009 37.950665 -10.468691 -0.029297 -0.117192 22.334141 -2.333799 -0.723647 -22.607075 1.972634 -0.273275 10.621325 4.718893 4.929160 35.284264 -9.234139 6.716920 -6.032338 16.182667 -0.012049 -98.619331 10.529659 -24.090569 -12.034703 1.943640 21.215126 -20.811693 5.156143 -1.966724 8.533651 -8.858871 -0.009542 101.020103 -25.677217 -38.549904 23.638437 -4.540259 61.616665 22.263432 5.171864 2.113646 -21.800438 12.954160 7.270226 98.467117 3.122594 -6.235407 -9.701047 14.422781 -9.397660 -2.802744 -7.727873 -19.470301 37.793907 0.813358 5.017092 -20.369326 -7.236864 9.490096 
-6.028077 18.558844 38.222034 -10.643517 -0.097651 -0.595719 22.315662 -2.294828 -0.518336 -22.503347 1.962888 -0.097599 10.706406 4.669272 5.066212 35.290897 -9.328676 6.848479 -5.983515 16.153364 -0.012046 -98.879433 10.805490 -22.920797 -12.326054 1.874329 20.517187 -20.843950 5.237276 -2.000494 8.455529 -8.839326 -0.009545 100.901215 -25.551277 -37.477356 23.698549 -4.516981 61.011486 22.145023 5.179856 2.094070 -22.615248 12.576811 6.552772 98.487938 3.103136 -6.219632 -7.450797 14.258759 -9.999348 -2.373060 -7.652254 -19.253855 37.967857 0.787682 5.075649 -20.888477 -7.038526 9.479555 
-6.077114 18.534239 38.478951 -10.749357 -0.146461 -1.015647 22.289240 -2.255817 -0.352059 -22.430008 1.914062 0.049127 10.837590 4.717045 5.183806 35.166008 -9.404119 6.959215 -5.924927 16.124056 -0.012043 -99.070381 11.025530 -21.912598 -12.562895 1.825369 19.911263 -20.915468 5.316986 -2.037964 8.406704 -8.819787 -0.009546 100.849800 -25.400663 -36.648529 23.715656 -4.493193 60.580383 22.194019 5.178071 2.098478 -23.524321 12.157738 5.755326 98.175407 3.093470 -6.223265 -5.707126 13.716044 -10.509678 -1.953467 -7.540596 -19.004993 37.997074 0.768100 5.080468 -21.344398 -6.840001 9.528289 
-6.112350 18.526358 38.732357 -10.826032 -0.165966 -1.396507 22.273979 -2.226547 -0.215061 -22.396994 1.845695 0.166244 10.933016 4.667321 5.330591 34.955776 -9.430637 7.087626 -5.827282 16.055679 -0.012037 -99.251778 11.291436 -20.921604 -12.753976 1.779654 19.251806 -20.821720 5.439115 -2.074741 8.406708 -8.800256 -0.009547 100.816475 -25.244730 -36.204170 23.748632 -4.506034 60.769737 22.328360 5.332305 2.186324 -24.368063 11.675543 4.985770 97.492722 3.054505 -6.222015 -4.428271 12.912781 -10.889446 -1.582599 -7.541418 -18.869795 38.036114 0.768159 5.082392 -21.696566 -6.668563 9.554960 
-6.134972 18.527113 38.971443 -10.777697 -0.117134 -1.738298 22.211245 -2.246090 -0.107722 -22.452126 1.845682 0.273610 10.993879 4.598445 5.437654 34.793457 -9.438525 7.177510 -5.739413 15.938476 -0.012025 -99.432968 11.553423 -20.087458 -12.859413 1.741121 18.819965 -20.773909 5.446548 -2.082648 8.396935 -8.849083 -0.009546 100.876884 -25.218258 -35.753071 23.850824 -4.515716 60.949978 22.336094 5.277736 2.165052 -25.297659 11.120543 4.157542 96.459084 2.957384 -6.255256 -3.716695 11.769213 -11.147006 -1.338249 -7.567149 -18.597754 38.036110 0.768193 5.082404 -22.053459 -6.536538 9.568962 
-6.151408 18.534798 39.205730 -10.729976 -0.068316 -2.050792 22.206648 -2.246094 0.009758 -22.478710 1.689414 0.391031 10.916038 4.636726 5.516311 34.520054 -9.437310 7.236900 -5.612442 16.026348 -0.012037 -99.669441 11.725200 -19.405170 -12.895679 1.733123 18.701994 -20.908955 5.408559 -2.072661 8.387166 -8.858847 -0.009546 100.986481 -25.095369 -35.375771 23.879047 -4.518713 61.052799 22.441694 5.241294 2.151086 -26.125784 10.514362 3.388851 94.946823 2.860092 -6.282469 -3.334520 10.687446 -11.300702 -1.104173 -7.601316 -18.355465 37.977901 0.768144 5.069844 -22.298162 -6.448617 9.548841 
